<?xml version="1.0" standalone="no"?>
<!DOCTYPE svg PUBLIC "-//W3C//DTD SVG 20010904//EN"
 "http://www.w3.org/TR/2001/REC-SVG-20010904/DTD/svg10.dtd">
<svg version="1.0" xmlns="http://www.w3.org/2000/svg"
 width="446.000000pt" height="446.000000pt" viewBox="0 0 446.000000 446.000000"
 preserveAspectRatio="xMidYMid meet">
<metadata>
Created by potrace 1.14, written by Peter Selinger 2001-2017
</metadata>
<g transform="translate(0.000000,446.000000) scale(0.100000,-0.100000)"
fill="#000000" stroke="none">
<path d="M2380 4441 c205 -52 287 -81 441 -156 176 -85 315 -179 463 -311 95
-85 119 -109 202 -209 242 -293 413 -685 465 -1070 18 -131 18 -473 0 -590
-21 -141 -70 -338 -101 -410 -4 -11 -23 -58 -41 -105 -127 -326 -368 -645
-649 -860 -397 -302 -896 -443 -1370 -386 -546 66 -1026 350 -1360 804 -29 39
-54 72 -56 72 -9 0 35 -82 79 -150 280 -424 731 -739 1222 -853 186 -43 237
-49 432 -49 179 -1 242 5 413 38 739 144 1370 755 1573 1524 62 234 71 306 71
580 0 276 -12 379 -70 596 -154 583 -558 1090 -1075 1349 -214 108 -465 186
-639 199 l-75 6 75 -19z"/>
<path d="M1710 4370 c-211 -22 -401 -80 -615 -186 -176 -87 -306 -180 -448
-321 -221 -219 -381 -480 -476 -776 -73 -228 -96 -401 -88 -666 5 -186 17
-274 56 -428 156 -608 611 -1112 1179 -1304 102 -35 129 -37 52 -5 -768 319
-1223 1110 -1129 1964 82 751 617 1390 1321 1577 443 118 931 46 1323 -195 97
-59 54 -14 -54 57 -187 124 -447 227 -660 264 -135 23 -341 31 -461 19z"/>
<path d="M2910 4377 c3 -2 57 -31 120 -64 421 -217 751 -551 956 -969 164
-335 238 -653 237 -1024 0 -372 -71 -682 -228 -1005 -118 -241 -263 -443 -447
-621 -287 -279 -642 -466 -1045 -550 -156 -32 -464 -45 -616 -24 -267 35 -507
113 -745 242 -51 27 -96 47 -99 44 -4 -3 -1 -6 5 -6 6 0 17 -6 24 -14 26 -26
154 -103 254 -154 222 -113 417 -176 664 -214 109 -17 450 -16 550 1 396 67
685 188 979 409 103 77 300 270 376 367 163 210 294 444 365 655 12 36 26 74
31 85 5 11 20 64 34 119 104 418 99 827 -16 1236 -16 58 -34 114 -39 125 -5
11 -12 31 -16 45 -3 14 -14 43 -24 65 -10 22 -30 69 -46 105 -123 280 -358
581 -623 798 -73 61 -253 182 -269 182 -6 0 -12 4 -14 8 -4 10 -193 102 -268
130 -64 24 -107 37 -100 29z"/>
<path d="M1817 4229 c-592 -68 -1099 -439 -1366 -999 -176 -368 -225 -793
-141 -1198 75 -357 264 -701 521 -947 289 -276 666 -447 1034 -469 l90 -5
-100 18 c-361 67 -648 215 -896 463 -476 478 -640 1201 -418 1845 202 585 660
999 1246 1124 142 31 401 37 548 14 315 -49 618 -196 859 -417 86 -78 202
-213 255 -296 36 -57 46 -65 31 -27 -34 90 -137 237 -250 357 -373 397 -899
597 -1413 537z"/>
<path d="M1235 3089 c-2 -3 32 -41 76 -84 l79 -80 0 -263 c0 -201 -3 -264 -12
-267 -7 -2 -29 -6 -49 -9 -59 -10 -123 -60 -155 -121 -16 -29 -25 -57 -22 -61
4 -4 22 4 40 18 56 43 95 58 148 58 46 0 50 -2 50 -24 0 -20 -6 -24 -41 -30
-48 -8 -107 -36 -132 -64 -15 -16 -15 -21 -4 -30 10 -9 21 -6 47 13 32 23 88
45 118 45 9 0 12 -60 12 -267 l0 -268 -95 -79 c-52 -43 -95 -81 -95 -83 0 -1
131 -3 291 -3 l291 0 -76 84 -76 83 0 312 0 311 200 0 200 0 0 -90 0 -90 100
0 100 0 0 258 -1 257 -20 -25 c-12 -14 -54 -62 -96 -107 l-75 -83 -154 0 -154
0 0 234 c0 155 4 237 11 241 5 4 72 9 147 12 208 9 326 -13 412 -74 l25 -18
-16 25 c-9 14 -31 35 -49 48 -71 48 -158 59 -427 54 l-133 -2 0 -260 0 -260
-35 0 -35 0 0 290 0 290 188 2 c344 5 415 -12 494 -119 24 -32 52 -78 62 -101
10 -23 22 -42 26 -42 4 0 19 33 35 73 39 101 71 162 121 234 l43 63 -680 2
c-375 2 -683 0 -684 -3z"/>
<path d="M2690 3080 c0 -6 32 -40 70 -76 l70 -66 0 -557 c0 -313 -4 -582 -10
-615 -5 -33 -22 -84 -37 -114 -51 -101 -129 -142 -269 -142 -139 0 -205 37
-251 140 -22 48 -26 75 -32 210 l-6 155 -95 0 -95 0 -3 -160 c-1 -88 0 -170 3
-181 8 -35 92 -121 153 -157 206 -124 529 -125 740 -4 98 56 185 168 198 255
5 36 3 46 -14 63 -12 10 -26 36 -31 56 -12 42 -14 997 -3 1024 4 9 37 49 75
89 37 40 67 76 67 81 0 5 -116 9 -265 9 -173 0 -265 -4 -265 -10z"/>
<path d="M3255 3032 c-6 -4 -34 -33 -62 -64 l-53 -57 0 -530 0 -529 36 -48 37
-48 -19 -55 c-37 -110 -152 -228 -273 -282 -120 -53 -209 -71 -361 -72 -109 0
-163 4 -218 18 -40 10 -75 22 -78 26 -3 5 -13 9 -22 9 -25 -1 20 -25 98 -52
58 -20 83 -23 235 -22 165 0 173 1 265 33 52 17 125 50 162 71 81 49 169 144
209 226 28 60 39 134 19 134 -5 0 -21 17 -35 37 l-25 38 0 514 0 514 56 64
c34 38 53 68 48 73 -5 5 -14 6 -19 2z"/>
<path d="M2630 2998 c-120 -152 -216 -368 -162 -368 4 0 16 25 27 56 24 71 87
182 149 263 44 58 51 82 23 80 -7 0 -23 -14 -37 -31z"/>
<path d="M2288 2357 c-3 -248 -3 -257 18 -257 12 0 14 36 12 237 -2 174 -6
237 -15 240 -9 3 -13 -50 -15 -220z"/>
<path d="M1700 1922 l0 -297 80 -105 c44 -58 80 -108 80 -112 0 -5 -145 -8
-322 -8 -320 0 -321 0 -303 -20 17 -19 31 -20 356 -20 186 0 340 3 342 8 3 4
-42 69 -99 145 l-104 137 0 265 0 265 130 0 c123 0 130 1 130 20 0 19 -7 20
-145 20 l-145 0 0 -298z"/>
<path d="M2291 1852 c3 -129 7 -163 21 -184 26 -40 59 -68 97 -84 38 -16 168
-19 191 -4 10 7 -11 10 -68 10 -94 0 -128 13 -165 62 -33 44 -47 117 -47 248
0 94 -2 110 -16 110 -14 0 -16 -18 -13 -158z"/>
<path d="M2180 1426 c0 -2 7 -7 16 -10 8 -3 12 -2 9 4 -6 10 -25 14 -25 6z"/>
</g>
</svg>
